<?xml version="1.0" encoding="utf-8" standalone="no"?>
<!DOCTYPE svg PUBLIC "-//W3C//DTD SVG 1.1//EN"
  "http://www.w3.org/Graphics/SVG/1.1/DTD/svg11.dtd">
<svg xmlns:xlink="http://www.w3.org/1999/xlink" width="216pt" height="432pt" viewBox="0 0 216 432" xmlns="http://www.w3.org/2000/svg" version="1.1">
 <metadata>
  <rdf:RDF xmlns:dc="http://purl.org/dc/elements/1.1/" xmlns:cc="http://creativecommons.org/ns#" xmlns:rdf="http://www.w3.org/1999/02/22-rdf-syntax-ns#">
   <cc:Work>
    <dc:type rdf:resource="http://purl.org/dc/dcmitype/StillImage"/>
    <dc:date>2024-02-29T11:56:26.709059</dc:date>
    <dc:format>image/svg+xml</dc:format>
    <dc:creator>
     <cc:Agent>
      <dc:title>Matplotlib v3.8.3, https://matplotlib.org/</dc:title>
     </cc:Agent>
    </dc:creator>
   </cc:Work>
  </rdf:RDF>
 </metadata>
 <defs>
  <style type="text/css">*{stroke-linejoin: round; stroke-linecap: butt}</style>
 </defs>
 <g id="figure_1">
  <g id="patch_1">
   <path d="M 0 432
L 216 432
L 216 0
L 0 0
z
" style="fill: #ffffff"/>
  </g>
  <g id="axes_1">
   <g id="patch_2">
    <path d="M 27 384.48
L 194.4 384.48
L 194.4 51.84
L 27 51.84
z
" style="fill: #ffffff"/>
   </g>
   <g id="patch_3">
    <path d="M 68.85 5706.72
L 68.85 5706.72
L 68.85 5706.72
L 68.85 5706.72
z
" clip-path="url(#p097e511b69)" style="fill: #dd3f87; stroke: #3a3a3a; stroke-linejoin: miter"/>
   </g>
   <g id="patch_4">
    <path d="M 68.85 5706.72
L 68.85 5706.72
L 68.85 5706.72
L 68.85 5706.72
z
" clip-path="url(#p097e511b69)" style="fill: #6e1fa1; stroke: #3a3a3a; stroke-linejoin: miter"/>
   </g>
   <g id="patch_5">
    <path d="M 68.85 5706.72
L 68.85 5706.72
L 68.85 5706.72
L 68.85 5706.72
z
" clip-path="url(#p097e511b69)" style="fill: #586fd9; stroke: #3a3a3a; stroke-linejoin: miter"/>
   </g>
   <g id="patch_6">
    <path d="M 68.85 5706.72
L 68.85 5706.72
L 68.85 5706.72
L 68.85 5706.72
z
" clip-path="url(#p097e511b69)" style="fill: #60bedc; stroke: #3a3a3a; stroke-linejoin: miter"/>
   </g>
   <g id="matplotlib.axis_1">
    <g id="xtick_1">
     <g id="line2d_1">
      <defs>
       <path id="m60f9ea5b6d" d="M 0 0
L 0 3.5
" style="stroke: #000000; stroke-width: 0.8"/>
      </defs>
      <g>
       <use xlink:href="#m60f9ea5b6d" x="68.85" y="424.48" style="stroke: #000000; stroke-width: 0.8"/>
      </g>
     </g>
     <g id="text_1">
      <!-- SwinUNetR -->
      <g transform="translate(49.425832 480.531114) rotate(-45) scale(0.11 -0.11)">
       <defs>
        <path id="DejaVuSans-53" d="M 3425 4513
L 3425 3897
Q 3066 4069 2747 4153
Q 2428 4238 2131 4238
Q 1616 4238 1336 4038
Q 1056 3838 1056 3469
Q 1056 3159 1242 3001
Q 1428 2844 1947 2747
L 2328 2669
Q 3034 2534 3370 2195
Q 3706 1856 3706 1288
Q 3706 609 3251 259
Q 2797 -91 1919 -91
Q 1588 -91 1214 -16
Q 841 59 441 206
L 441 856
Q 825 641 1194 531
Q 1563 422 1919 422
Q 2459 422 2753 634
Q 3047 847 3047 1241
Q 3047 1584 2836 1778
Q 2625 1972 2144 2069
L 1759 2144
Q 1053 2284 737 2584
Q 422 2884 422 3419
Q 422 4038 858 4394
Q 1294 4750 2059 4750
Q 2388 4750 2728 4690
Q 3069 4631 3425 4513
z
" transform="scale(0.015625)"/>
        <path id="DejaVuSans-77" d="M 269 3500
L 844 3500
L 1563 769
L 2278 3500
L 2956 3500
L 3675 769
L 4391 3500
L 4966 3500
L 4050 0
L 3372 0
L 2619 2869
L 1863 0
L 1184 0
L 269 3500
z
" transform="scale(0.015625)"/>
        <path id="DejaVuSans-69" d="M 603 3500
L 1178 3500
L 1178 0
L 603 0
L 603 3500
z
M 603 4863
L 1178 4863
L 1178 4134
L 603 4134
L 603 4863
z
" transform="scale(0.015625)"/>
        <path id="DejaVuSans-6e" d="M 3513 2113
L 3513 0
L 2938 0
L 2938 2094
Q 2938 2591 2744 2837
Q 2550 3084 2163 3084
Q 1697 3084 1428 2787
Q 1159 2491 1159 1978
L 1159 0
L 581 0
L 581 3500
L 1159 3500
L 1159 2956
Q 1366 3272 1645 3428
Q 1925 3584 2291 3584
Q 2894 3584 3203 3211
Q 3513 2838 3513 2113
z
" transform="scale(0.015625)"/>
        <path id="DejaVuSans-55" d="M 556 4666
L 1191 4666
L 1191 1831
Q 1191 1081 1462 751
Q 1734 422 2344 422
Q 2950 422 3222 751
Q 3494 1081 3494 1831
L 3494 4666
L 4128 4666
L 4128 1753
Q 4128 841 3676 375
Q 3225 -91 2344 -91
Q 1459 -91 1007 375
Q 556 841 556 1753
L 556 4666
z
" transform="scale(0.015625)"/>
        <path id="DejaVuSans-4e" d="M 628 4666
L 1478 4666
L 3547 763
L 3547 4666
L 4159 4666
L 4159 0
L 3309 0
L 1241 3903
L 1241 0
L 628 0
L 628 4666
z
" transform="scale(0.015625)"/>
        <path id="DejaVuSans-65" d="M 3597 1894
L 3597 1613
L 953 1613
Q 991 1019 1311 708
Q 1631 397 2203 397
Q 2534 397 2845 478
Q 3156 559 3463 722
L 3463 178
Q 3153 47 2828 -22
Q 2503 -91 2169 -91
Q 1331 -91 842 396
Q 353 884 353 1716
Q 353 2575 817 3079
Q 1281 3584 2069 3584
Q 2775 3584 3186 3129
Q 3597 2675 3597 1894
z
M 3022 2063
Q 3016 2534 2758 2815
Q 2500 3097 2075 3097
Q 1594 3097 1305 2825
Q 1016 2553 972 2059
L 3022 2063
z
" transform="scale(0.015625)"/>
        <path id="DejaVuSans-74" d="M 1172 4494
L 1172 3500
L 2356 3500
L 2356 3053
L 1172 3053
L 1172 1153
Q 1172 725 1289 603
Q 1406 481 1766 481
L 2356 481
L 2356 0
L 1766 0
Q 1100 0 847 248
Q 594 497 594 1153
L 594 3053
L 172 3053
L 172 3500
L 594 3500
L 594 4494
L 1172 4494
z
" transform="scale(0.015625)"/>
        <path id="DejaVuSans-52" d="M 2841 2188
Q 3044 2119 3236 1894
Q 3428 1669 3622 1275
L 4263 0
L 3584 0
L 2988 1197
Q 2756 1666 2539 1819
Q 2322 1972 1947 1972
L 1259 1972
L 1259 0
L 628 0
L 628 4666
L 2053 4666
Q 2853 4666 3247 4331
Q 3641 3997 3641 3322
Q 3641 2881 3436 2590
Q 3231 2300 2841 2188
z
M 1259 4147
L 1259 2491
L 2053 2491
Q 2509 2491 2742 2702
Q 2975 2913 2975 3322
Q 2975 3731 2742 3939
Q 2509 4147 2053 4147
L 1259 4147
z
" transform="scale(0.015625)"/>
       </defs>
       <use xlink:href="#DejaVuSans-53"/>
       <use xlink:href="#DejaVuSans-77" x="63.476562"/>
       <use xlink:href="#DejaVuSans-69" x="145.263672"/>
       <use xlink:href="#DejaVuSans-6e" x="173.046875"/>
       <use xlink:href="#DejaVuSans-55" x="236.425781"/>
       <use xlink:href="#DejaVuSans-4e" x="309.619141"/>
       <use xlink:href="#DejaVuSans-65" x="384.423828"/>
       <use xlink:href="#DejaVuSans-74" x="445.947266"/>
       <use xlink:href="#DejaVuSans-52" x="485.15625"/>
      </g>
     </g>
    </g>
    <g id="xtick_2">
     <g id="line2d_2">
      <g>
       <use xlink:href="#m60f9ea5b6d" x="152.55" y="424.48" style="stroke: #000000; stroke-width: 0.8"/>
      </g>
     </g>
     <g id="text_2">
      <!-- WNet -->
      <g transform="translate(144.023784 458.73521) rotate(-45) scale(0.11 -0.11)">
       <defs>
        <path id="DejaVuSans-57" d="M 213 4666
L 850 4666
L 1831 722
L 2809 4666
L 3519 4666
L 4500 722
L 5478 4666
L 6119 4666
L 4947 0
L 4153 0
L 3169 4050
L 2175 0
L 1381 0
L 213 4666
z
" transform="scale(0.015625)"/>
       </defs>
       <use xlink:href="#DejaVuSans-57"/>
       <use xlink:href="#DejaVuSans-4e" x="98.876953"/>
       <use xlink:href="#DejaVuSans-65" x="173.681641"/>
       <use xlink:href="#DejaVuSans-74" x="235.205078"/>
      </g>
     </g>
    </g>
   </g>
   <g id="matplotlib.axis_2">
    <g id="ytick_1">
     <g id="line2d_3">
      <defs>
       <path id="m0dca1860a4" d="M 0 0
L -3.5 0
" style="stroke: #000000; stroke-width: 0.8"/>
      </defs>
      <g>
       <use xlink:href="#m0dca1860a4" x="27" y="384.48" style="stroke: #000000; stroke-width: 0.8"/>
      </g>
     </g>
     <g id="text_3">
      <!-- 0.80 -->
      <g transform="translate(-4.492188 388.659141) scale(0.11 -0.11)">
       <defs>
        <path id="DejaVuSans-30" d="M 2034 4250
Q 1547 4250 1301 3770
Q 1056 3291 1056 2328
Q 1056 1369 1301 889
Q 1547 409 2034 409
Q 2525 409 2770 889
Q 3016 1369 3016 2328
Q 3016 3291 2770 3770
Q 2525 4250 2034 4250
z
M 2034 4750
Q 2819 4750 3233 4129
Q 3647 3509 3647 2328
Q 3647 1150 3233 529
Q 2819 -91 2034 -91
Q 1250 -91 836 529
Q 422 1150 422 2328
Q 422 3509 836 4129
Q 1250 4750 2034 4750
z
" transform="scale(0.015625)"/>
        <path id="DejaVuSans-2e" d="M 684 794
L 1344 794
L 1344 0
L 684 0
L 684 794
z
" transform="scale(0.015625)"/>
        <path id="DejaVuSans-38" d="M 2034 2216
Q 1584 2216 1326 1975
Q 1069 1734 1069 1313
Q 1069 891 1326 650
Q 1584 409 2034 409
Q 2484 409 2743 651
Q 3003 894 3003 1313
Q 3003 1734 2745 1975
Q 2488 2216 2034 2216
z
M 1403 2484
Q 997 2584 770 2862
Q 544 3141 544 3541
Q 544 4100 942 4425
Q 1341 4750 2034 4750
Q 2731 4750 3128 4425
Q 3525 4100 3525 3541
Q 3525 3141 3298 2862
Q 3072 2584 2669 2484
Q 3125 2378 3379 2068
Q 3634 1759 3634 1313
Q 3634 634 3220 271
Q 2806 -91 2034 -91
Q 1263 -91 848 271
Q 434 634 434 1313
Q 434 1759 690 2068
Q 947 2378 1403 2484
z
M 1172 3481
Q 1172 3119 1398 2916
Q 1625 2713 2034 2713
Q 2441 2713 2670 2916
Q 2900 3119 2900 3481
Q 2900 3844 2670 4047
Q 2441 4250 2034 4250
Q 1625 4250 1398 4047
Q 1172 3844 1172 3481
z
" transform="scale(0.015625)"/>
       </defs>
       <use xlink:href="#DejaVuSans-30"/>
       <use xlink:href="#DejaVuSans-2e" x="63.623047"/>
       <use xlink:href="#DejaVuSans-38" x="95.410156"/>
       <use xlink:href="#DejaVuSans-30" x="159.033203"/>
      </g>
     </g>
    </g>
    <g id="ytick_2">
     <g id="line2d_4">
      <g>
       <use xlink:href="#m0dca1860a4" x="27" y="317.952" style="stroke: #000000; stroke-width: 0.8"/>
      </g>
     </g>
     <g id="text_4">
      <!-- 0.81 -->
      <g transform="translate(-4.492188 322.131141) scale(0.11 -0.11)">
       <defs>
        <path id="DejaVuSans-31" d="M 794 531
L 1825 531
L 1825 4091
L 703 3866
L 703 4441
L 1819 4666
L 2450 4666
L 2450 531
L 3481 531
L 3481 0
L 794 0
L 794 531
z
" transform="scale(0.015625)"/>
       </defs>
       <use xlink:href="#DejaVuSans-30"/>
       <use xlink:href="#DejaVuSans-2e" x="63.623047"/>
       <use xlink:href="#DejaVuSans-38" x="95.410156"/>
       <use xlink:href="#DejaVuSans-31" x="159.033203"/>
      </g>
     </g>
    </g>
    <g id="ytick_3">
     <g id="line2d_5">
      <g>
       <use xlink:href="#m0dca1860a4" x="27" y="251.424" style="stroke: #000000; stroke-width: 0.8"/>
      </g>
     </g>
     <g id="text_5">
      <!-- 0.82 -->
      <g transform="translate(-4.492188 255.603141) scale(0.11 -0.11)">
       <defs>
        <path id="DejaVuSans-32" d="M 1228 531
L 3431 531
L 3431 0
L 469 0
L 469 531
Q 828 903 1448 1529
Q 2069 2156 2228 2338
Q 2531 2678 2651 2914
Q 2772 3150 2772 3378
Q 2772 3750 2511 3984
Q 2250 4219 1831 4219
Q 1534 4219 1204 4116
Q 875 4013 500 3803
L 500 4441
Q 881 4594 1212 4672
Q 1544 4750 1819 4750
Q 2544 4750 2975 4387
Q 3406 4025 3406 3419
Q 3406 3131 3298 2873
Q 3191 2616 2906 2266
Q 2828 2175 2409 1742
Q 1991 1309 1228 531
z
" transform="scale(0.015625)"/>
       </defs>
       <use xlink:href="#DejaVuSans-30"/>
       <use xlink:href="#DejaVuSans-2e" x="63.623047"/>
       <use xlink:href="#DejaVuSans-38" x="95.410156"/>
       <use xlink:href="#DejaVuSans-32" x="159.033203"/>
      </g>
     </g>
    </g>
    <g id="ytick_4">
     <g id="line2d_6">
      <g>
       <use xlink:href="#m0dca1860a4" x="27" y="184.896" style="stroke: #000000; stroke-width: 0.8"/>
      </g>
     </g>
     <g id="text_6">
      <!-- 0.83 -->
      <g transform="translate(-4.492188 189.075141) scale(0.11 -0.11)">
       <defs>
        <path id="DejaVuSans-33" d="M 2597 2516
Q 3050 2419 3304 2112
Q 3559 1806 3559 1356
Q 3559 666 3084 287
Q 2609 -91 1734 -91
Q 1441 -91 1130 -33
Q 819 25 488 141
L 488 750
Q 750 597 1062 519
Q 1375 441 1716 441
Q 2309 441 2620 675
Q 2931 909 2931 1356
Q 2931 1769 2642 2001
Q 2353 2234 1838 2234
L 1294 2234
L 1294 2753
L 1863 2753
Q 2328 2753 2575 2939
Q 2822 3125 2822 3475
Q 2822 3834 2567 4026
Q 2313 4219 1838 4219
Q 1578 4219 1281 4162
Q 984 4106 628 3988
L 628 4550
Q 988 4650 1302 4700
Q 1616 4750 1894 4750
Q 2613 4750 3031 4423
Q 3450 4097 3450 3541
Q 3450 3153 3228 2886
Q 3006 2619 2597 2516
z
" transform="scale(0.015625)"/>
       </defs>
       <use xlink:href="#DejaVuSans-30"/>
       <use xlink:href="#DejaVuSans-2e" x="63.623047"/>
       <use xlink:href="#DejaVuSans-38" x="95.410156"/>
       <use xlink:href="#DejaVuSans-33" x="159.033203"/>
      </g>
     </g>
    </g>
    <g id="ytick_5">
     <g id="line2d_7">
      <g>
       <use xlink:href="#m0dca1860a4" x="27" y="118.368" style="stroke: #000000; stroke-width: 0.8"/>
      </g>
     </g>
     <g id="text_7">
      <!-- 0.84 -->
      <g transform="translate(-4.492188 122.547141) scale(0.11 -0.11)">
       <defs>
        <path id="DejaVuSans-34" d="M 2419 4116
L 825 1625
L 2419 1625
L 2419 4116
z
M 2253 4666
L 3047 4666
L 3047 1625
L 3713 1625
L 3713 1100
L 3047 1100
L 3047 0
L 2419 0
L 2419 1100
L 313 1100
L 313 1709
L 2253 4666
z
" transform="scale(0.015625)"/>
       </defs>
       <use xlink:href="#DejaVuSans-30"/>
       <use xlink:href="#DejaVuSans-2e" x="63.623047"/>
       <use xlink:href="#DejaVuSans-38" x="95.410156"/>
       <use xlink:href="#DejaVuSans-34" x="159.033203"/>
      </g>
     </g>
    </g>
    <g id="ytick_6">
     <g id="line2d_8">
      <g>
       <use xlink:href="#m0dca1860a4" x="27" y="51.84" style="stroke: #000000; stroke-width: 0.8"/>
      </g>
     </g>
     <g id="text_8">
      <!-- 0.85 -->
      <g transform="translate(-4.492188 56.019141) scale(0.11 -0.11)">
       <defs>
        <path id="DejaVuSans-35" d="M 691 4666
L 3169 4666
L 3169 4134
L 1269 4134
L 1269 2991
Q 1406 3038 1543 3061
Q 1681 3084 1819 3084
Q 2600 3084 3056 2656
Q 3513 2228 3513 1497
Q 3513 744 3044 326
Q 2575 -91 1722 -91
Q 1428 -91 1123 -41
Q 819 9 494 109
L 494 744
Q 775 591 1075 516
Q 1375 441 1709 441
Q 2250 441 2565 725
Q 2881 1009 2881 1497
Q 2881 1984 2565 2268
Q 2250 2553 1709 2553
Q 1456 2553 1204 2497
Q 953 2441 691 2322
L 691 4666
z
" transform="scale(0.015625)"/>
       </defs>
       <use xlink:href="#DejaVuSans-30"/>
       <use xlink:href="#DejaVuSans-2e" x="63.623047"/>
       <use xlink:href="#DejaVuSans-38" x="95.410156"/>
       <use xlink:href="#DejaVuSans-35" x="159.033203"/>
      </g>
     </g>
    </g>
    <g id="text_9">
     <!-- Dice coefficient -->
     <g transform="translate(-12.235625 287.985937) rotate(-90) scale(0.18 -0.18)">
      <defs>
       <path id="DejaVuSans-44" d="M 1259 4147
L 1259 519
L 2022 519
Q 2988 519 3436 956
Q 3884 1394 3884 2338
Q 3884 3275 3436 3711
Q 2988 4147 2022 4147
L 1259 4147
z
M 628 4666
L 1925 4666
Q 3281 4666 3915 4102
Q 4550 3538 4550 2338
Q 4550 1131 3912 565
Q 3275 0 1925 0
L 628 0
L 628 4666
z
" transform="scale(0.015625)"/>
       <path id="DejaVuSans-63" d="M 3122 3366
L 3122 2828
Q 2878 2963 2633 3030
Q 2388 3097 2138 3097
Q 1578 3097 1268 2742
Q 959 2388 959 1747
Q 959 1106 1268 751
Q 1578 397 2138 397
Q 2388 397 2633 464
Q 2878 531 3122 666
L 3122 134
Q 2881 22 2623 -34
Q 2366 -91 2075 -91
Q 1284 -91 818 406
Q 353 903 353 1747
Q 353 2603 823 3093
Q 1294 3584 2113 3584
Q 2378 3584 2631 3529
Q 2884 3475 3122 3366
z
" transform="scale(0.015625)"/>
       <path id="DejaVuSans-20" transform="scale(0.015625)"/>
       <path id="DejaVuSans-6f" d="M 1959 3097
Q 1497 3097 1228 2736
Q 959 2375 959 1747
Q 959 1119 1226 758
Q 1494 397 1959 397
Q 2419 397 2687 759
Q 2956 1122 2956 1747
Q 2956 2369 2687 2733
Q 2419 3097 1959 3097
z
M 1959 3584
Q 2709 3584 3137 3096
Q 3566 2609 3566 1747
Q 3566 888 3137 398
Q 2709 -91 1959 -91
Q 1206 -91 779 398
Q 353 888 353 1747
Q 353 2609 779 3096
Q 1206 3584 1959 3584
z
" transform="scale(0.015625)"/>
       <path id="DejaVuSans-66" d="M 2375 4863
L 2375 4384
L 1825 4384
Q 1516 4384 1395 4259
Q 1275 4134 1275 3809
L 1275 3500
L 2222 3500
L 2222 3053
L 1275 3053
L 1275 0
L 697 0
L 697 3053
L 147 3053
L 147 3500
L 697 3500
L 697 3744
Q 697 4328 969 4595
Q 1241 4863 1831 4863
L 2375 4863
z
" transform="scale(0.015625)"/>
      </defs>
      <use xlink:href="#DejaVuSans-44"/>
      <use xlink:href="#DejaVuSans-69" x="77.001953"/>
      <use xlink:href="#DejaVuSans-63" x="104.785156"/>
      <use xlink:href="#DejaVuSans-65" x="159.765625"/>
      <use xlink:href="#DejaVuSans-20" x="221.289062"/>
      <use xlink:href="#DejaVuSans-63" x="253.076172"/>
      <use xlink:href="#DejaVuSans-6f" x="308.056641"/>
      <use xlink:href="#DejaVuSans-65" x="369.238281"/>
      <use xlink:href="#DejaVuSans-66" x="430.761719"/>
      <use xlink:href="#DejaVuSans-66" x="465.966797"/>
      <use xlink:href="#DejaVuSans-69" x="501.171875"/>
      <use xlink:href="#DejaVuSans-63" x="528.955078"/>
      <use xlink:href="#DejaVuSans-69" x="583.935547"/>
      <use xlink:href="#DejaVuSans-65" x="611.71875"/>
      <use xlink:href="#DejaVuSans-6e" x="673.242188"/>
      <use xlink:href="#DejaVuSans-74" x="736.621094"/>
     </g>
    </g>
   </g>
   <g id="patch_7">
    <path d="M 35.37 182.783579
L 52.11 182.783579
L 52.11 148.289764
L 35.37 148.289764
L 35.37 182.783579
z
" clip-path="url(#p097e511b69)" style="fill: #dd3f87; stroke: #3a3a3a; stroke-linejoin: miter"/>
   </g>
   <g id="line2d_9">
    <path d="M 43.74 182.783579
L 43.74 214.799811
" clip-path="url(#p097e511b69)" style="fill: none; stroke: #3a3a3a"/>
   </g>
   <g id="line2d_10">
    <path d="M 43.74 148.289764
L 43.74 145.812182
" clip-path="url(#p097e511b69)" style="fill: none; stroke: #3a3a3a"/>
   </g>
   <g id="line2d_11">
    <path d="M 39.555 214.799811
L 47.925 214.799811
" clip-path="url(#p097e511b69)" style="fill: none; stroke: #3a3a3a; stroke-linecap: square"/>
   </g>
   <g id="line2d_12">
    <path d="M 39.555 145.812182
L 47.925 145.812182
" clip-path="url(#p097e511b69)" style="fill: none; stroke: #3a3a3a; stroke-linecap: square"/>
   </g>
   <g id="line2d_13"/>
   <g id="patch_8">
    <path d="M 52.11 144.095821
L 68.85 144.095821
L 68.85 95.738325
L 52.11 95.738325
L 52.11 144.095821
z
" clip-path="url(#p097e511b69)" style="fill: #6e1fa1; stroke: #3a3a3a; stroke-linejoin: miter"/>
   </g>
   <g id="line2d_14">
    <path d="M 60.48 144.095821
L 60.48 158.03674
" clip-path="url(#p097e511b69)" style="fill: none; stroke: #3a3a3a"/>
   </g>
   <g id="line2d_15">
    <path d="M 60.48 95.738325
L 60.48 61.321746
" clip-path="url(#p097e511b69)" style="fill: none; stroke: #3a3a3a"/>
   </g>
   <g id="line2d_16">
    <path d="M 56.295 158.03674
L 64.665 158.03674
" clip-path="url(#p097e511b69)" style="fill: none; stroke: #3a3a3a; stroke-linecap: square"/>
   </g>
   <g id="line2d_17">
    <path d="M 56.295 61.321746
L 64.665 61.321746
" clip-path="url(#p097e511b69)" style="fill: none; stroke: #3a3a3a; stroke-linecap: square"/>
   </g>
   <g id="line2d_18"/>
   <g id="patch_9">
    <path d="M 68.85 183.214075
L 85.59 183.214075
L 85.59 108.018639
L 68.85 108.018639
L 68.85 183.214075
z
" clip-path="url(#p097e511b69)" style="fill: #586fd9; stroke: #3a3a3a; stroke-linejoin: miter"/>
   </g>
   <g id="line2d_19">
    <path d="M 77.22 183.214075
L 77.22 247.435976
" clip-path="url(#p097e511b69)" style="fill: none; stroke: #3a3a3a"/>
   </g>
   <g id="line2d_20">
    <path d="M 77.22 108.018639
L 77.22 97.045105
" clip-path="url(#p097e511b69)" style="fill: none; stroke: #3a3a3a"/>
   </g>
   <g id="line2d_21">
    <path d="M 73.035 247.435976
L 81.405 247.435976
" clip-path="url(#p097e511b69)" style="fill: none; stroke: #3a3a3a; stroke-linecap: square"/>
   </g>
   <g id="line2d_22">
    <path d="M 73.035 97.045105
L 81.405 97.045105
" clip-path="url(#p097e511b69)" style="fill: none; stroke: #3a3a3a; stroke-linecap: square"/>
   </g>
   <g id="line2d_23"/>
   <g id="patch_10">
    <path d="M 169.29 317.592215
L 186.03 317.592215
L 186.03 286.980399
L 169.29 286.980399
L 169.29 317.592215
z
" clip-path="url(#p097e511b69)" style="fill: #60bedc; stroke: #3a3a3a; stroke-linejoin: miter"/>
   </g>
   <g id="line2d_24">
    <path d="M 177.66 317.592215
L 177.66 326.237886
" clip-path="url(#p097e511b69)" style="fill: none; stroke: #3a3a3a"/>
   </g>
   <g id="line2d_25">
    <path d="M 177.66 286.980399
L 177.66 265.014256
" clip-path="url(#p097e511b69)" style="fill: none; stroke: #3a3a3a"/>
   </g>
   <g id="line2d_26">
    <path d="M 173.475 326.237886
L 181.845 326.237886
" clip-path="url(#p097e511b69)" style="fill: none; stroke: #3a3a3a; stroke-linecap: square"/>
   </g>
   <g id="line2d_27">
    <path d="M 173.475 265.014256
L 181.845 265.014256
" clip-path="url(#p097e511b69)" style="fill: none; stroke: #3a3a3a; stroke-linecap: square"/>
   </g>
   <g id="line2d_28"/>
   <g id="line2d_29">
    <path d="M 35.37 150.767346
L 52.11 150.767346
" clip-path="url(#p097e511b69)" style="fill: none; stroke: #3a3a3a"/>
   </g>
   <g id="line2d_30">
    <path d="M 52.11 130.154903
L 68.85 130.154903
" clip-path="url(#p097e511b69)" style="fill: none; stroke: #3a3a3a"/>
   </g>
   <g id="line2d_31">
    <path d="M 68.85 118.992173
L 85.59 118.992173
" clip-path="url(#p097e511b69)" style="fill: none; stroke: #3a3a3a"/>
   </g>
   <g id="line2d_32">
    <path d="M 169.29 308.946543
L 186.03 308.946543
" clip-path="url(#p097e511b69)" style="fill: none; stroke: #3a3a3a"/>
   </g>
   <g id="patch_11">
    <path d="M 27 384.48
L 27 51.84
" style="fill: none; stroke: #000000; stroke-width: 0.8; stroke-linejoin: miter; stroke-linecap: square"/>
   </g>
   <g id="patch_12">
    <path d="M 68.85 424.48
L 152.55 424.48
" style="fill: none; stroke: #000000; stroke-width: 0.8; stroke-linejoin: miter; stroke-linecap: square"/>
   </g>
  </g>
 </g>
 <defs>
  <clipPath id="p097e511b69">
   <rect x="27" y="51.84" width="167.4" height="332.64"/>
  </clipPath>
 </defs>
</svg>
